<svg width="13" height="8" viewBox="0 0 13 8" fill="none" xmlns="http://www.w3.org/2000/svg">
<path d="M0.345224 0.989421L0.345223 0.989421C0.0660447 1.2742 0.0660463 1.73513 0.345222 2.01991L0.345224 2.01991L5.72793 7.51058L5.72774 7.51077L5.73324 7.51562L5.80247 7.57659L5.80228 7.5768L5.80821 7.58128C6.08956 7.79426 6.48902 7.77046 6.74375 7.51058L12.1264 2.01991L12.1266 2.0201L12.1313 2.01451L12.1911 1.94388L12.1913 1.94406L12.1957 1.93811C12.4032 1.65285 12.3804 1.24849 12.1264 0.989421L12.1266 0.989232L12.1211 0.984381L12.0519 0.923414L12.0521 0.923207L12.0461 0.918723C11.7648 0.705773 11.3654 0.729578 11.1107 0.989421L6.23584 5.9622L1.36102 0.989422L1.36121 0.989233L1.3557 0.984378L1.28647 0.92341L1.28665 0.923203L1.28073 0.918722C0.999374 0.705774 0.599959 0.729577 0.345224 0.989421Z" fill="white" stroke="white" stroke-width="0.2"/>
</svg>
