<svg width="55" height="54" viewBox="0 0 55 54" fill="none" xmlns="http://www.w3.org/2000/svg">
<path d="M19.065 35.5816V40H18.4686V38.1604C17.959 38.3844 17.4578 38.4964 16.965 38.4964C16.433 38.4964 16.0186 38.376 15.7218 38.1352C15.425 37.8888 15.2766 37.522 15.2766 37.0348V35.5816H15.873V37.0012C15.873 37.3316 15.9794 37.5836 16.1922 37.7572C16.405 37.9252 16.699 38.0092 17.0742 38.0092C17.4886 38.0092 17.9534 37.9 18.4686 37.6816V35.5816H19.065ZM22.2792 35.548C22.856 35.548 23.2984 35.6936 23.6064 35.9848C23.9144 36.2704 24.0684 36.696 24.0684 37.2616V40H23.4972V39.3112C23.3628 39.5408 23.164 39.72 22.9008 39.8488C22.6432 39.9776 22.3352 40.042 21.9768 40.042C21.484 40.042 21.092 39.9244 20.8008 39.6892C20.5096 39.454 20.364 39.1432 20.364 38.7568C20.364 38.3816 20.4984 38.0792 20.7672 37.8496C21.0416 37.62 21.4756 37.5052 22.0692 37.5052H23.472V37.2364C23.472 36.8556 23.3656 36.5672 23.1528 36.3712C22.94 36.1696 22.6292 36.0688 22.2204 36.0688C21.9404 36.0688 21.6716 36.1164 21.414 36.2116C21.1564 36.3012 20.9352 36.4272 20.7504 36.5896L20.4816 36.1444C20.7056 35.954 20.9744 35.8084 21.288 35.7076C21.6016 35.6012 21.932 35.548 22.2792 35.548ZM22.0692 39.5716C22.4052 39.5716 22.6936 39.496 22.9344 39.3448C23.1752 39.188 23.3544 38.964 23.472 38.6728V37.9504H22.086C21.33 37.9504 20.952 38.2136 20.952 38.74C20.952 38.9976 21.05 39.202 21.246 39.3532C21.442 39.4988 21.7164 39.5716 22.0692 39.5716ZM27.504 40.042C27.0672 40.042 26.6752 39.9468 26.328 39.7564C25.9864 39.566 25.7176 39.3 25.5216 38.9584C25.3256 38.6112 25.2276 38.222 25.2276 37.7908C25.2276 37.3596 25.3256 36.9732 25.5216 36.6316C25.7176 36.29 25.9864 36.024 26.328 35.8336C26.6752 35.6432 27.0672 35.548 27.504 35.548C27.8848 35.548 28.2236 35.6236 28.5204 35.7748C28.8228 35.9204 29.0608 36.136 29.2344 36.4216L28.7892 36.724C28.6436 36.5056 28.4588 36.3432 28.2348 36.2368C28.0108 36.1248 27.7672 36.0688 27.504 36.0688C27.1848 36.0688 26.8964 36.1416 26.6388 36.2872C26.3868 36.4272 26.188 36.6288 26.0424 36.892C25.9024 37.1552 25.8324 37.4548 25.8324 37.7908C25.8324 38.1324 25.9024 38.4348 26.0424 38.698C26.188 38.9556 26.3868 39.1572 26.6388 39.3028C26.8964 39.4428 27.1848 39.5128 27.504 39.5128C27.7672 39.5128 28.0108 39.4596 28.2348 39.3532C28.4588 39.2468 28.6436 39.0844 28.7892 38.866L29.2344 39.1684C29.0608 39.454 28.8228 39.6724 28.5204 39.8236C28.218 39.9692 27.8792 40.042 27.504 40.042ZM32.1382 40.042C31.7126 40.042 31.329 39.9468 30.9874 39.7564C30.6458 39.5604 30.377 39.2916 30.181 38.95C29.985 38.6084 29.887 38.222 29.887 37.7908C29.887 37.3596 29.985 36.9732 30.181 36.6316C30.377 36.29 30.6458 36.024 30.9874 35.8336C31.329 35.6432 31.7126 35.548 32.1382 35.548C32.5638 35.548 32.9474 35.6432 33.289 35.8336C33.6306 36.024 33.8966 36.29 34.087 36.6316C34.283 36.9732 34.381 37.3596 34.381 37.7908C34.381 38.222 34.283 38.6084 34.087 38.95C33.8966 39.2916 33.6306 39.5604 33.289 39.7564C32.9474 39.9468 32.5638 40.042 32.1382 40.042ZM32.1382 39.5128C32.4518 39.5128 32.7318 39.4428 32.9782 39.3028C33.2302 39.1572 33.4262 38.9528 33.5662 38.6896C33.7062 38.4264 33.7762 38.1268 33.7762 37.7908C33.7762 37.4548 33.7062 37.1552 33.5662 36.892C33.4262 36.6288 33.2302 36.4272 32.9782 36.2872C32.7318 36.1416 32.4518 36.0688 32.1382 36.0688C31.8246 36.0688 31.5418 36.1416 31.2898 36.2872C31.0434 36.4272 30.8474 36.6288 30.7018 36.892C30.5618 37.1552 30.4918 37.4548 30.4918 37.7908C30.4918 38.1268 30.5618 38.4264 30.7018 38.6896C30.8474 38.9528 31.0434 39.1572 31.2898 39.3028C31.5418 39.4428 31.8246 39.5128 32.1382 39.5128ZM38.4696 37.7152C39.0688 37.8552 39.3685 38.2164 39.3685 38.7988C39.3685 39.1852 39.2256 39.482 38.94 39.6892C38.6544 39.8964 38.2288 40 37.6632 40H35.6556V35.5816H37.6044C38.1084 35.5816 38.5032 35.6796 38.7888 35.8756C39.0744 36.0716 39.2172 36.3516 39.2172 36.7156C39.2172 36.9564 39.15 37.1636 39.0156 37.3372C38.8868 37.5052 38.7048 37.6312 38.4696 37.7152ZM36.2352 37.5472H37.5624C37.904 37.5472 38.1644 37.4828 38.3436 37.354C38.5284 37.2252 38.6208 37.0376 38.6208 36.7912C38.6208 36.5448 38.5284 36.36 38.3436 36.2368C38.1644 36.1136 37.904 36.052 37.5624 36.052H36.2352V37.5472ZM37.638 39.5296C38.0188 39.5296 38.3044 39.468 38.4948 39.3448C38.6852 39.2216 38.7804 39.0284 38.7804 38.7652C38.7804 38.502 38.6936 38.3088 38.52 38.1856C38.3464 38.0568 38.072 37.9924 37.6968 37.9924H36.2352V39.5296H37.638Z" fill="white"/>
<path d="M27.0962 20.7336C28.8722 20.7336 30.1802 21.0876 31.0202 21.7956C31.8722 22.5036 32.2982 23.4516 32.2982 24.6396C32.2982 25.4076 32.1062 26.1096 31.7222 26.7456C31.3382 27.3696 30.7502 27.8736 29.9582 28.2576C29.1782 28.6296 28.2122 28.8156 27.0602 28.8156C26.1722 28.8156 25.2962 28.7016 24.4322 28.4736C23.5802 28.2336 22.8542 27.8976 22.2542 27.4656L23.4062 25.2336C23.8862 25.5936 24.4382 25.8756 25.0622 26.0796C25.6862 26.2716 26.3282 26.3676 26.9882 26.3676C27.7202 26.3676 28.2962 26.2236 28.7162 25.9356C29.1362 25.6476 29.3462 25.2456 29.3462 24.7296C29.3462 24.1896 29.1242 23.7816 28.6802 23.5056C28.2482 23.2296 27.4922 23.0916 26.4122 23.0916H23.1902L23.8382 15.9996H31.5242V18.3396H26.2682L26.0702 20.7336H27.0962Z" fill="white"/>
<path d="M54.4409 27C54.4409 41.9117 42.3652 54 27.469 54C12.5728 54 0.49707 41.9117 0.49707 27C0.49707 12.0883 12.5728 0 27.469 0C42.3652 0 54.4409 12.0883 54.4409 27ZM4.00342 27C4.00342 39.9732 14.5093 50.49 27.469 50.49C40.4287 50.49 50.9346 39.9732 50.9346 27C50.9346 14.0268 40.4287 3.51 27.469 3.51C14.5093 3.51 4.00342 14.0268 4.00342 27Z" fill="white" fill-opacity="0.12"/>
<path d="M27.4692 1.75508C27.4692 0.785816 28.2558 -0.00587467 29.223 0.0572128C32.9774 0.302097 36.646 1.33113 39.9898 3.08546C43.8528 5.11214 47.1671 8.04632 49.6488 11.6365C52.1305 15.2266 53.7055 19.3657 54.2388 23.6988C54.7005 27.4503 54.3694 31.2504 53.2747 34.8544C52.9931 35.7815 51.9754 36.2384 51.0688 35.8967C50.1631 35.5553 49.7121 34.5459 49.9845 33.6171C50.8852 30.5461 51.1512 27.3168 50.7587 24.128C50.2948 20.3582 48.9246 16.7572 46.7655 13.6337C44.6064 10.5103 41.7229 7.95757 38.3621 6.19437C35.5206 4.70357 32.4095 3.81478 29.2226 3.57574C28.2561 3.50325 27.4692 2.72434 27.4692 1.75508Z" fill="white"/>
</svg>
