<svg width="23" height="19" viewBox="0 0 23 19" fill="none" xmlns="http://www.w3.org/2000/svg">
<path d="M21.8072 5.48068C22.0644 5.38924 22.2361 5.14565 22.2358 4.87263C22.2355 4.5996 22.0632 4.35644 21.8058 4.26561L11.4503 0.611934C11.3116 0.562949 11.1602 0.562949 11.0214 0.611934L0.665958 4.26561C0.408489 4.3564 0.236184 4.5996 0.23584 4.87263C0.235497 5.14565 0.407243 5.38924 0.664497 5.48068L4.76668 6.93904V11.1434C4.76668 11.8373 5.49057 12.4241 6.91825 12.8875C8.16267 13.2914 9.69606 13.5139 11.2359 13.5139C12.7757 13.5139 14.3091 13.2914 15.5535 12.8875C16.9812 12.4241 17.7051 11.8373 17.7051 11.1434V6.93904L19.3988 6.33692V12.1628C18.6456 12.4291 18.1044 13.1479 18.1044 13.9912C18.1044 14.8344 18.6456 15.5533 19.3988 15.8196V18.2811C19.3988 18.637 19.6874 18.9256 20.0433 18.9256C20.3993 18.9256 20.6878 18.637 20.6878 18.2811V15.8196C21.441 15.5533 21.9823 14.8345 21.9823 13.9912C21.9823 13.148 21.441 12.4291 20.6878 12.1628V5.87861L21.8072 5.48068ZM20.0433 14.6411C19.6849 14.6411 19.3934 14.3495 19.3934 13.9912C19.3934 13.6328 19.6849 13.3413 20.0433 13.3413C20.4016 13.3413 20.6932 13.6328 20.6932 13.9912C20.6932 14.3495 20.4016 14.6411 20.0433 14.6411ZM11.2358 1.90319L19.6607 4.87572L11.2358 7.87077L2.811 4.87568L11.2358 1.90319ZM16.416 11.0462C16.2924 11.1708 15.8502 11.469 14.8521 11.7538C13.7873 12.0575 12.503 12.2248 11.2358 12.2248C9.96869 12.2248 8.68444 12.0575 7.61959 11.7538C6.62147 11.469 6.17923 11.1708 6.0557 11.0462V7.3973L11.0199 9.16211C11.0897 9.18695 11.1628 9.19937 11.2358 9.19937C11.3088 9.19937 11.3818 9.18695 11.4517 9.16211L16.4159 7.3973V11.0462H16.416Z" fill="white"/>
</svg>
