<svg width="55" height="54" viewBox="0 0 55 54" fill="none" xmlns="http://www.w3.org/2000/svg">
<path d="M19.3838 35.5816V40H18.8378V36.5056L17.0486 39.4624H16.7798L14.9906 36.4972V40H14.4446V35.5816H15.0494L16.9226 38.7652L18.8294 35.5816H19.3838ZM21.0809 35.5816H21.6773V39.0928L24.6257 35.5816H25.1549V40H24.5585V36.4888L21.6185 40H21.0809V35.5816ZM26.8641 35.5816H27.4605V37.5388H30.2409V35.5816H30.8373V40H30.2409V38.0512H27.4605V40H26.8641V35.5816ZM36.2873 35.5816L34.0781 40.5292C33.8989 40.9436 33.6917 41.2376 33.4565 41.4112C33.2213 41.5848 32.9385 41.6716 32.6081 41.6716C32.3953 41.6716 32.1965 41.638 32.0117 41.5708C31.8269 41.5036 31.6673 41.4028 31.5329 41.2684L31.8101 40.8232C32.0341 41.0472 32.3029 41.1592 32.6165 41.1592C32.8181 41.1592 32.9889 41.1032 33.1289 40.9912C33.2745 40.8792 33.4089 40.6888 33.5321 40.42L33.7253 39.9916L31.7513 35.5816H32.3729L34.0361 39.3364L35.6993 35.5816H36.2873ZM40.3409 36.1108H38.6693V40H38.0729V36.1108H36.4013V35.5816H40.3409V36.1108Z" fill="white"/>
<path d="M21.6148 20.7336C23.3908 20.7336 24.6988 21.0876 25.5388 21.7956C26.3908 22.5036 26.8168 23.4516 26.8168 24.6396C26.8168 25.4076 26.6248 26.1096 26.2408 26.7456C25.8568 27.3696 25.2688 27.8736 24.4768 28.2576C23.6968 28.6296 22.7308 28.8156 21.5788 28.8156C20.6908 28.8156 19.8148 28.7016 18.9508 28.4736C18.0988 28.2336 17.3728 27.8976 16.7728 27.4656L17.9248 25.2336C18.4048 25.5936 18.9568 25.8756 19.5808 26.0796C20.2048 26.2716 20.8468 26.3676 21.5068 26.3676C22.2388 26.3676 22.8148 26.2236 23.2348 25.9356C23.6548 25.6476 23.8648 25.2456 23.8648 24.7296C23.8648 24.1896 23.6428 23.7816 23.1988 23.5056C22.7668 23.2296 22.0108 23.0916 20.9308 23.0916H17.7088L18.3568 15.9996H26.0428V18.3396H20.7868L20.5888 20.7336H21.6148ZM32.4279 15.7836C34.1919 15.7836 35.5719 16.3236 36.5679 17.4036C37.5639 18.4716 38.0619 20.0136 38.0619 22.0296C38.0619 23.4576 37.7919 24.6816 37.2519 25.7016C36.7239 26.7216 35.9739 27.4956 35.0019 28.0236C34.0299 28.5516 32.9079 28.8156 31.6359 28.8156C30.9639 28.8156 30.3219 28.7436 29.7099 28.5996C29.0979 28.4436 28.5759 28.2276 28.1439 27.9516L29.2239 25.8096C29.8359 26.2296 30.6219 26.4396 31.5819 26.4396C32.6499 26.4396 33.4959 26.1276 34.1199 25.5036C34.7439 24.8676 35.0799 23.9556 35.1279 22.7676C34.3719 23.5236 33.3279 23.9016 31.9959 23.9016C31.1919 23.9016 30.4599 23.7396 29.7999 23.4156C29.1399 23.0916 28.6179 22.6356 28.2339 22.0476C27.8499 21.4476 27.6579 20.7576 27.6579 19.9776C27.6579 19.1376 27.8679 18.3996 28.2879 17.7636C28.7079 17.1276 29.2779 16.6416 29.9979 16.3056C30.7299 15.9576 31.5399 15.7836 32.4279 15.7836ZM32.6439 21.7236C33.2799 21.7236 33.7959 21.5496 34.1919 21.2016C34.5999 20.8416 34.8039 20.3856 34.8039 19.8336C34.8039 19.2816 34.6059 18.8316 34.2099 18.4836C33.8259 18.1356 33.2919 17.9616 32.6079 17.9616C31.9839 17.9616 31.4739 18.1296 31.0779 18.4656C30.6939 18.8016 30.5019 19.2576 30.5019 19.8336C30.5019 20.4096 30.6939 20.8716 31.0779 21.2196C31.4739 21.5556 31.9959 21.7236 32.6439 21.7236Z" fill="white"/>
<path d="M54.3536 27C54.3536 41.9117 42.2779 54 27.3817 54C12.4854 54 0.409668 41.9117 0.409668 27C0.409668 12.0883 12.4854 0 27.3817 0C42.2779 0 54.3536 12.0883 54.3536 27ZM3.91603 27C3.91603 39.9732 14.4219 50.49 27.3817 50.49C40.3414 50.49 50.8473 39.9732 50.8473 27C50.8473 14.0268 40.3414 3.51 27.3817 3.51C14.4219 3.51 3.91603 14.0268 3.91603 27Z" fill="white" fill-opacity="0.12"/>
<path d="M27.3817 1.755C27.3817 0.785741 28.1685 -0.00595666 29.1357 0.0571049C35.4031 0.46574 41.3531 3.05451 45.9379 7.40524C50.9485 12.1601 53.9468 18.6574 54.3153 25.5589C54.6838 32.4604 52.3944 39.2407 47.9187 44.5031C43.443 49.7655 37.1217 53.1095 30.2568 53.8462C23.392 54.5829 16.5063 52.6563 11.0179 48.4632C5.52953 44.2701 1.85643 38.1298 0.755119 31.3069C-0.346196 24.484 1.20814 17.4981 5.09799 11.7881C8.65712 6.56353 13.9235 2.77108 19.9618 1.04173C20.8938 0.774792 21.8308 1.38192 22.0361 2.32944C22.2413 3.27639 21.6376 4.204 20.7088 4.47977C15.5466 6.01236 11.0485 9.28315 7.99488 13.7657C4.61071 18.7334 3.25843 24.8111 4.21658 30.747C5.17472 36.6829 8.37032 42.025 13.1452 45.673C17.9201 49.321 23.9107 50.9972 29.8831 50.3562C35.8555 49.7153 41.355 46.806 45.2489 42.2277C49.1428 37.6494 51.1345 31.7506 50.8139 25.7463C50.4933 19.7419 47.8848 14.0893 43.5256 9.95256C39.5924 6.22012 34.5042 3.9782 29.1352 3.57563C28.1687 3.50316 27.3817 2.72426 27.3817 1.755Z" fill="white"/>
</svg>
