<svg width="55" height="54" viewBox="0 0 55 54" fill="none" xmlns="http://www.w3.org/2000/svg">
<path d="M14.4064 40.042C13.9696 40.042 13.5776 39.9468 13.2304 39.7564C12.8888 39.566 12.62 39.3 12.424 38.9584C12.228 38.6112 12.13 38.222 12.13 37.7908C12.13 37.3596 12.228 36.9732 12.424 36.6316C12.62 36.29 12.8888 36.024 13.2304 35.8336C13.5776 35.6432 13.9696 35.548 14.4064 35.548C14.7872 35.548 15.126 35.6236 15.4228 35.7748C15.7252 35.9204 15.9632 36.136 16.1368 36.4216L15.6916 36.724C15.546 36.5056 15.3612 36.3432 15.1372 36.2368C14.9132 36.1248 14.6696 36.0688 14.4064 36.0688C14.0872 36.0688 13.7988 36.1416 13.5412 36.2872C13.2892 36.4272 13.0904 36.6288 12.9448 36.892C12.8048 37.1552 12.7348 37.4548 12.7348 37.7908C12.7348 38.1324 12.8048 38.4348 12.9448 38.698C13.0904 38.9556 13.2892 39.1572 13.5412 39.3028C13.7988 39.4428 14.0872 39.5128 14.4064 39.5128C14.6696 39.5128 14.9132 39.4596 15.1372 39.3532C15.3612 39.2468 15.546 39.0844 15.6916 38.866L16.1368 39.1684C15.9632 39.454 15.7252 39.6724 15.4228 39.8236C15.1204 39.9692 14.7816 40.042 14.4064 40.042ZM21.0817 37.9756H17.3857C17.4193 38.4348 17.5957 38.8072 17.9149 39.0928C18.2341 39.3728 18.6373 39.5128 19.1245 39.5128C19.3989 39.5128 19.6509 39.4652 19.8805 39.37C20.1101 39.2692 20.3089 39.1236 20.4769 38.9332L20.8129 39.3196C20.6169 39.5548 20.3705 39.734 20.0737 39.8572C19.7825 39.9804 19.4605 40.042 19.1077 40.042C18.6541 40.042 18.2509 39.9468 17.8981 39.7564C17.5509 39.5604 17.2793 39.2916 17.0833 38.95C16.8873 38.6084 16.7893 38.222 16.7893 37.7908C16.7893 37.3596 16.8817 36.9732 17.0665 36.6316C17.2569 36.29 17.5145 36.024 17.8393 35.8336C18.1697 35.6432 18.5393 35.548 18.9481 35.548C19.3569 35.548 19.7237 35.6432 20.0485 35.8336C20.3733 36.024 20.6281 36.29 20.8129 36.6316C20.9977 36.9676 21.0901 37.354 21.0901 37.7908L21.0817 37.9756ZM18.9481 36.0604C18.5225 36.0604 18.1641 36.1976 17.8729 36.472C17.5873 36.7408 17.4249 37.0936 17.3857 37.5304H20.5189C20.4797 37.0936 20.3145 36.7408 20.0233 36.472C19.7377 36.1976 19.3793 36.0604 18.9481 36.0604ZM24.0147 38.0344H23.0067V40H22.4103V35.5816H23.0067V37.522H24.0231L25.5771 35.5816H26.2239L24.4851 37.7236L26.3499 40H25.6443L24.0147 38.0344ZM30.7917 35.5816L28.5825 40.5292C28.4033 40.9436 28.1961 41.2376 27.9609 41.4112C27.7257 41.5848 27.4429 41.6716 27.1125 41.6716C26.8997 41.6716 26.7009 41.638 26.5161 41.5708C26.3313 41.5036 26.1717 41.4028 26.0373 41.2684L26.3145 40.8232C26.5385 41.0472 26.8073 41.1592 27.1209 41.1592C27.3225 41.1592 27.4933 41.1032 27.6333 40.9912C27.7789 40.8792 27.9133 40.6888 28.0365 40.42L28.2297 39.9916L26.2557 35.5816H26.8773L28.5405 39.3364L30.2037 35.5816H30.7917ZM31.7209 35.5816H32.3173V37.5388H35.0977V35.5816H35.6941V40H35.0977V38.0512H32.3173V40H31.7209V35.5816ZM41.6984 39.4792V41.0668H41.1356V40H37.1792V41.0668H36.6164V39.4792H36.8684C37.1652 39.4624 37.3668 39.244 37.4732 38.824C37.5796 38.404 37.6524 37.816 37.6916 37.06L37.7504 35.5816H41.0096V39.4792H41.6984ZM38.2376 37.0936C38.2096 37.7208 38.1564 38.2388 38.078 38.6476C37.9996 39.0508 37.8596 39.328 37.658 39.4792H40.4132V36.1108H38.288L38.2376 37.0936Z" fill="white"/>
<path d="M27.5467 25.9536H25.4947V28.5996H22.6506V25.9536H15.8646V23.9916L21.8046 15.9996H24.8647L19.3566 23.5776H22.7406V21.2196H25.4947V23.5776H27.5467V25.9536ZM37.2166 21.9756C37.8406 22.2876 38.3146 22.6956 38.6386 23.1996C38.9746 23.7036 39.1426 24.2856 39.1426 24.9456C39.1426 25.7256 38.9206 26.4096 38.4766 26.9976C38.0326 27.5736 37.4086 28.0236 36.6046 28.3476C35.8006 28.6596 34.8706 28.8156 33.8146 28.8156C32.7586 28.8156 31.8286 28.6596 31.0246 28.3476C30.2326 28.0236 29.6146 27.5736 29.1706 26.9976C28.7386 26.4096 28.5226 25.7256 28.5226 24.9456C28.5226 24.2856 28.6846 23.7036 29.0086 23.1996C29.3446 22.6956 29.8186 22.2876 30.4306 21.9756C29.9626 21.6876 29.6026 21.3276 29.3506 20.8956C29.0986 20.4516 28.9726 19.9476 28.9726 19.3836C28.9726 18.6516 29.1766 18.0156 29.5846 17.4756C29.9926 16.9356 30.5626 16.5216 31.2946 16.2336C32.0266 15.9336 32.8666 15.7836 33.8146 15.7836C34.7746 15.7836 35.6206 15.9336 36.3526 16.2336C37.0966 16.5216 37.6726 16.9356 38.0806 17.4756C38.4886 18.0156 38.6926 18.6516 38.6926 19.3836C38.6926 19.9476 38.5666 20.4516 38.3146 20.8956C38.0626 21.3276 37.6966 21.6876 37.2166 21.9756ZM33.8146 17.9256C33.2266 17.9256 32.7526 18.0696 32.3926 18.3576C32.0446 18.6336 31.8706 19.0176 31.8706 19.5096C31.8706 19.9896 32.0446 20.3676 32.3926 20.6436C32.7406 20.9196 33.2146 21.0576 33.8146 21.0576C34.4146 21.0576 34.8946 20.9196 35.2546 20.6436C35.6146 20.3676 35.7946 19.9896 35.7946 19.5096C35.7946 19.0176 35.6146 18.6336 35.2546 18.3576C34.8946 18.0696 34.4146 17.9256 33.8146 17.9256ZM33.8146 26.6736C34.5466 26.6736 35.1226 26.5116 35.5426 26.1876C35.9746 25.8516 36.1906 25.4076 36.1906 24.8556C36.1906 24.3036 35.9746 23.8656 35.5426 23.5416C35.1226 23.2176 34.5466 23.0556 33.8146 23.0556C33.0946 23.0556 32.5246 23.2176 32.1046 23.5416C31.6846 23.8656 31.4746 24.3036 31.4746 24.8556C31.4746 25.4196 31.6846 25.8636 32.1046 26.1876C32.5246 26.5116 33.0946 26.6736 33.8146 26.6736Z" fill="white"/>
<path d="M54.2659 27C54.2659 41.9117 42.1902 54 27.2941 54C12.398 54 0.322266 41.9117 0.322266 27C0.322266 12.0883 12.398 0 27.2941 0C42.1902 0 54.2659 12.0883 54.2659 27ZM3.8286 27C3.8286 39.9732 14.3344 50.49 27.2941 50.49C40.2537 50.49 50.7595 39.9732 50.7595 27C50.7595 14.0268 40.2537 3.51 27.2941 3.51C14.3344 3.51 3.8286 14.0268 3.8286 27Z" fill="white" fill-opacity="0.12"/>
<path d="M27.2941 1.755C27.2941 0.785741 28.0807 -0.00595676 29.0479 0.0571178C34.4798 0.411347 39.693 2.40453 43.9896 5.79446C48.747 9.54785 52.1037 14.795 53.5191 20.6908C54.9346 26.5865 54.3263 32.7876 51.7923 38.2951C49.2584 43.8027 44.9462 48.296 39.5504 51.0514C34.1547 53.8068 27.9894 54.6638 22.0478 53.4844C16.1062 52.3049 10.7342 49.1578 6.79703 44.5498C2.85986 39.9417 0.586786 34.1412 0.343949 28.0825C0.124618 22.6102 1.57305 17.215 4.47542 12.6048C4.99183 11.7846 6.09469 11.6124 6.87911 12.1818C7.66243 12.7504 7.83081 13.843 7.323 14.667C4.87729 18.6355 3.65966 23.2561 3.84746 27.9417C4.05873 33.2128 6.03631 38.2593 9.46164 42.2683C12.887 46.2773 17.5607 49.0153 22.7298 50.0414C27.899 51.0675 33.2628 50.3219 37.9571 47.9247C42.6514 45.5275 46.403 41.6183 48.6076 36.8268C50.8121 32.0352 51.3413 26.6403 50.1099 21.511C48.8785 16.3817 45.9581 11.8166 41.8192 8.55119C38.1412 5.64934 33.6912 3.92391 29.0475 3.57565C28.081 3.50316 27.2941 2.72426 27.2941 1.755Z" fill="white"/>
</svg>
